<svg xmlns="http://www.w3.org/2000/svg" viewBox="0 0 790.5 267.5"><defs><linearGradient id="a" x1="0%" y1="50%" y2="50%"><stop offset="0%" stop-color="#7A5FFF"><animate attributeName="stop-color" values="#7A5FFF; #01FF89; #7A5FFF" dur="4s" repeatCount="indefinite"></animate></stop><stop offset="100%" stop-color="#01FF89"><animate attributeName="stop-color" values="#01FF89; #7A5FFF; #01FF89" dur="4s" repeatCount="indefinite"></animate></stop></linearGradient></defs><path fill="url(#a)" class="st0" d="M271.9 148.4v109.7c0 .6-.4 1-1 1h-39c-.6 0-1-.4-1-1V151.7c0-19-15.3-34.8-34.3-34.7-19.7.1-38.7 11.7-38.7 43v98.1c0 .6-.4 1-1 1h-39c-.6 0-1-.4-1-1V151.7c0-19-15.3-34.8-34.3-34.7-19.7.1-38.7 11.7-38.7 43v98.1c0 .6-.4 1-1 1h-39c-.6 0-1-.4-1-1V88.3c0-.6.4-1 1-1h39c.6 0 1 .4 1 1v18.8C55.5 88.9 73 82.3 92.8 82.3c28.1 0 46.3 11.6 56.2 29.7 9.9-18.2 28.1-29.7 57.8-29.7 36.3 0 65.1 21.5 65.1 66.1zm178.7-8.7c4 12.6 5.6 27.1 5.6 41.6v5.6c0 .6-.4 1-1 1H324c1.3 21.5 16.8 44.6 46.6 44.6 22 0 33.6-12.1 37.8-22.5.2-.4.5-.6.9-.6l42.2.1c.7 0 1.2.7 1 1.3-10 29.1-37.9 53.2-81.8 53.2-54.8 0-89.2-39.6-89.2-90.9s35.4-90.9 88.2-90.9c43.6 0 70 23.1 80.9 57.5zm-37.1 17c-1-23.1-16.5-43-43.9-43-26.4 0-42.9 19.8-45.6 43h89.5zm136.1-3.3l-11.6-1.3c-19.8-2.3-31.7-8-31.7-21.5 0-9.6 8.6-19.2 32.7-19.2 21 0 30.9 9.1 32 21.2.1.5.5.9 1 .9h39.3c.6 0 1.1-.5 1-1.1-2.6-24.8-26-50.1-72.6-50.1-45.9 0-74.3 20.5-74.3 51.9 0 37 29.8 52.9 66.1 57.2l11.5 1.2c18.8 2.3 31.7 4.6 31.7 20.5 0 12.9-11.2 21.5-35 21.5-22.1 0-34.9-7.4-36-24.2 0-.5-.5-.9-1-.9h-39.6c-.6 0-1 .5-1 1.1 1.9 31.8 30.9 53.5 77.6 53.5 46.9 0 76-21.5 76-54.5 0-40.7-31.4-52.2-66.1-56.2zm171.3-71c-23.2 0-42.3 9.9-53.9 26.4v-80c0-.6-.4-1-1-1h-39c-.6 0-1 .4-1 1v229.3c0 .6.4 1 1 1h39c.6 0 1-.4 1-1v-93.2c0-30.9 18.6-47.4 42.8-47.9 20.3-.4 36.8 16.4 36.8 36.7v104.5c0 .6.4 1 1 1h39c.6 0 1-.4 1-1V151.8c0-44.6-25.4-69.4-66.7-69.4zM22 43.3c9.2 0 14.5-4.8 16.7-11.5H31c-1.2 3-4 5.5-9 5.5-7.9 0-12-6.5-12-13.9 0-7.3 4.1-13.9 12-13.9 4.6 0 7.2 2 8.6 4.6h7.8C36 8 30.8 3.5 22 3.5 10.3 3.5 2.9 12 2.9 23.4c0 11.4 7.4 19.9 19.1 19.9zm28.5-19.9c0-11.4 7.6-19.9 19.1-19.9S88.7 12 88.7 23.4c0 11.4-7.7 19.9-19.1 19.9-11.5 0-19.1-8.5-19.1-19.9zm7.1 0c-.1 7.4 4.3 13.9 12 13.9 7.6 0 12-6.6 12-13.9 0-7.4-4.4-13.9-12-13.9s-12 6.6-12 13.9zm53.1 2.9c0-6-.1-8.5-.4-12h.2c1.4 2.5 3.2 5.5 7.3 11.5l11.5 16.7h7.6V4.3h-7.1v16.2c0 6 .1 8.5.4 12h-.2c-1.4-2.5-3.2-5.5-7.3-11.5L111.2 4.3h-7.6v38.1h7.1V26.3zm57 11.5c-5.7 0-8.7-2.2-8.9-6h-7.2c.3 6.6 6 11.5 16.1 11.5 10.1 0 15.8-4.9 15.8-11.7 0-8-5.8-10.4-13.4-11.5l-3.3-.5c-4.5-.7-7.6-1.8-7.6-5.5 0-2.5 1.9-5.2 8.5-5.2 5.5 0 7.6 2.4 7.8 5.2h7.2c-.4-5-4.6-10.6-15-10.6-10.1 0-15.3 4.9-15.3 11.2 0 7.2 5.1 10.5 13.1 11.7l3.3.5c4.6.7 7.8 1.3 7.8 5.2 0 3.2-3.2 5.7-8.9 5.7zm58.3-1.3h-20.7V25.9H225v-6h-19.7v-9.6H226v-6h-27.8v38.2H226v-6zm42-16c0 6 .1 8.5.4 12h-.2C266.8 30 265 27 260.9 21L249.4 4.3h-7.6v38.1h7.1V26.3c0-6-.1-8.5-.4-12h.2c1.4 2.5 3.2 5.5 7.3 11.5l11.5 16.7h7.6V4.3H268v16.2zm37.8 17.3c-5.7 0-8.7-2.2-8.9-6h-7.2c.3 6.6 6 11.5 16.1 11.5s15.8-4.9 15.8-11.7c0-8-5.8-10.4-13.4-11.5l-3.3-.5c-4.5-.7-7.6-1.8-7.6-5.5 0-2.5 1.9-5.2 8.5-5.2 5.5 0 7.6 2.4 7.8 5.2h7.2c-.4-5-4.6-10.6-15-10.6-10.1 0-15.3 4.9-15.3 11.2 0 7.2 5.1 10.5 13.1 11.7l3.3.5c4.6.7 7.8 1.3 7.8 5.2 0 3.2-3.2 5.7-8.9 5.7zm38.2 4.7h7.1v-15l12.8-23.2h-7.6l-8.7 16.9-8.7-16.9h-7.6l12.8 23.2-.1 15zm45.8-4.7c-5.7 0-8.7-2.2-8.9-6h-7.2c.3 6.6 6 11.5 16.1 11.5s15.8-4.9 15.8-11.7c0-8-5.8-10.4-13.4-11.5l-3.3-.5c-4.5-.7-7.6-1.8-7.6-5.5 0-2.5 1.9-5.2 8.5-5.2 5.5 0 7.6 2.4 7.8 5.2h7.2c-.4-5-4.6-10.6-15-10.6-10.1 0-15.3 4.9-15.3 11.2 0 7.2 5.1 10.5 13.1 11.7l3.3.5c4.6.7 7.8 1.3 7.8 5.2 0 3.2-3.2 5.7-8.9 5.7z"></path></svg>